<?xml version="1.0" encoding="UTF-8" standalone="no"?>
<!-- Generator: Adobe Illustrator 19.2.1, SVG Export Plug-In . SVG Version: 6.00 Build 0)  -->

<svg
   xmlns:dc="http://purl.org/dc/elements/1.1/"
   xmlns:cc="http://creativecommons.org/ns#"
   xmlns:rdf="http://www.w3.org/1999/02/22-rdf-syntax-ns#"
   xmlns:svg="http://www.w3.org/2000/svg"
   xmlns="http://www.w3.org/2000/svg"
   xmlns:sodipodi="http://sodipodi.sourceforge.net/DTD/sodipodi-0.dtd"
   xmlns:inkscape="http://www.inkscape.org/namespaces/inkscape"
   version="1.1"
   id="Layer_1"
   x="0px"
   y="0px"
   viewBox="0 0 810 810"
   xml:space="preserve"
   sodipodi:docname="v2.svg"
   inkscape:version="0.92.4 (5da689c313, 2019-01-14)"><metadata
   id="metadata3811"><rdf:RDF><cc:Work
       rdf:about=""><dc:format>image/svg+xml</dc:format><dc:type
         rdf:resource="http://purl.org/dc/dcmitype/StillImage" /><dc:title></dc:title></cc:Work></rdf:RDF></metadata><defs
   id="defs3809" /><sodipodi:namedview
   pagecolor="#ffffff"
   bordercolor="#666666"
   borderopacity="1"
   objecttolerance="10"
   gridtolerance="10"
   guidetolerance="10"
   inkscape:pageopacity="0"
   inkscape:pageshadow="2"
   inkscape:window-width="1107"
   inkscape:window-height="591"
   id="namedview3807"
   showgrid="false"
   inkscape:zoom="0.68229201"
   inkscape:cx="621.80894"
   inkscape:cy="351.97464"
   inkscape:window-x="72"
   inkscape:window-y="114"
   inkscape:window-maximized="0"
   inkscape:current-layer="g3788" />
<style
   type="text/css"
   id="style3782">
	.st0{fill:#FF4500;}
	.st1{fill:#FFFFFF;}
</style>
<g
   id="g3788">
	<circle
   class="st0"
   cx="406.6"
   cy="405.6"
   r="402.3"
   id="circle3784"
   style="fill:#a4a4a4;fill-opacity:1" />
	<path
   class="st1"
   d="M 674.9,405.6 C 673.7,373.2 646.5,347.9 614,349 c -14.4,0.5 -28.1,6.4 -38.5,16.3 C 529.7,334.1 475.9,317 420.6,315.8 l 26.1,-125.5 86.1,18.1 c 2.4,22.1 22.2,38.1 44.3,35.7 22.1,-2.4 38.1,-22.2 35.7,-44.3 -2.4,-22.1 -22.2,-38.1 -44.3,-35.7 -12.7,1.3 -24.1,8.7 -30.4,19.7 l -98.6,-19.7 c -6.7,-1.5 -13.4,2.7 -14.9,9.5 v 0.2 l -29.7,139.6 c -56,0.9 -110.5,18.1 -156.9,49.5 -23.6,-22.2 -60.8,-21.1 -83,2.6 -22.2,23.6 -21.1,60.8 2.6,83 4.6,4.3 9.9,8 15.8,10.6 -0.4,5.9 -0.4,11.8 0,17.7 0,90.1 105,163.4 234.5,163.4 129.5,0 234.5,-73.2 234.5,-163.4 0.4,-5.9 0.4,-11.8 0,-17.7 20.2,-10.1 32.9,-30.9 32.5,-53.5 z"
   id="path3786"
   inkscape:connector-curvature="0"
   style="fill:#ffffff"
   sodipodi:nodetypes="ccccccsscccccccccccsccc" />
<circle
   style="opacity:1;fill:#a4a4a4;fill-opacity:1"
   id="path4768"
   cx="334.03882"
   cy="399.32037"
   r="14.563107" /><circle
   style="opacity:1;fill:#a4a4a4;fill-opacity:1"
   id="path4768-3"
   cx="476.01096"
   cy="400.80203"
   r="14.563107" /><path
   style="fill:none;stroke:#a4a4a4;stroke-width:13.5;stroke-linecap:round;stroke-linejoin:round;stroke-opacity:1;stroke-miterlimit:4;stroke-dasharray:none"
   d="m 427.18447,415.82524 26.21359,97.08738 -80.58253,-1.94175"
   id="path4791"
   inkscape:connector-curvature="0" /><path
   style="fill:none;stroke:#a4a4a4;stroke-width:13.5;stroke-linecap:round;stroke-linejoin:miter;stroke-opacity:1;stroke-miterlimit:4;stroke-dasharray:none"
   d="m 359.2233,557.57282 100.97087,3.88349"
   id="path4793"
   inkscape:connector-curvature="0" /></g>

</svg>